HIERARCHY
ROOT Hips
{
	OFFSET	0.000000	0.000000	0.000000
	CHANNELS 6 Xposition Yposition Zposition Zrotation Xrotation Yrotation
	JOINT LeftHip
	{
		OFFSET	4.740440	-3.195970	-0.322709
		CHANNELS 3 Zrotation Xrotation Yrotation
		JOINT LeftKnee
		{
			OFFSET	-1.605680	-15.592300	1.005510
			CHANNELS 3 Zrotation Xrotation Yrotation
			JOINT LeftAnkle
			{
				OFFSET	-0.632401	-16.421000	-1.413730
				CHANNELS 3 Zrotation Xrotation Yrotation
				End Site
				{
					OFFSET	0.008423	-3.021750	-1.660875
				}
			}
		}
	}
	JOINT RightHip
	{
		OFFSET	-4.740440	-3.195970	-0.322709
		CHANNELS 3 Zrotation Xrotation Yrotation
		JOINT RightKnee
		{
			OFFSET	1.605680	-15.592300	1.005510
			CHANNELS 3 Zrotation Xrotation Yrotation
			JOINT RightAnkle
			{
				OFFSET	0.632401	-16.421000	-1.413730
				CHANNELS 3 Zrotation Xrotation Yrotation
				End Site
				{
					OFFSET	-0.008423	-3.021750	-1.660875
				}
			}
		}
	}
	JOINT Chest
	{
		OFFSET	0.000000	3.468200	0.078401
		CHANNELS 3 Zrotation Xrotation Yrotation
		JOINT LeftCollar
		{
			OFFSET	3.857650	15.070700	-0.011583
			CHANNELS 3 Zrotation Xrotation Yrotation
			JOINT LeftShoulder
			{
				OFFSET	3.979720	-1.940530	-0.165223
				CHANNELS 3 Zrotation Xrotation Yrotation
				JOINT LeftElbow
				{
					OFFSET	0.615844	-10.986600	-0.673886
					CHANNELS 3 Zrotation Xrotation Yrotation
					JOINT LeftWrist
					{
						OFFSET	0.826843	-10.854500	1.034220
						CHANNELS 3 Zrotation Xrotation Yrotation
						End Site
						{
							OFFSET	-1.679080	-8.456540	0.936217
						}
					}
				}
			}
		}
		JOINT RightCollar
		{
			OFFSET	-3.857650	15.070700	-0.011583
			CHANNELS 3 Zrotation Xrotation Yrotation
			JOINT RightShoulder
			{
				OFFSET	-3.979720	-1.940530	-0.165223
				CHANNELS 3 Zrotation Xrotation Yrotation
				JOINT RightElbow
				{
					OFFSET	-0.615845	-10.986600	-0.673886
					CHANNELS 3 Zrotation Xrotation Yrotation
					JOINT RightWrist
					{
						OFFSET	-0.826843	-10.854500	1.034220
						CHANNELS 3 Zrotation Xrotation Yrotation
						End Site
						{
							OFFSET	1.679080	-8.456540	0.936217
						}
					}
				}
			}
		}
		JOINT Neck
		{
			OFFSET	0.000000	15.101400	0.055730
			CHANNELS 3 Zrotation Xrotation Yrotation
			JOINT Head
			{
				OFFSET	0.000000	4.185120	1.488260
				CHANNELS 3 Zrotation Xrotation Yrotation
				End Site
				{
					OFFSET	0.000000	7.773420	-0.106016
				}
			}
		}
	}
}
MOTION
Frames:     10
Frame Time: 0.016667
-3.264718	34.200493	-12.530109	-4.238745	-1.369347	-31.046997	38.188251	-25.754848	13.009415	-29.924921	33.376114	28.807755	-2.723289	-0.655117	4.706502	-29.474087	-0.453627	-5.303224	7.512490	36.700485	-11.618499	19.429707	-6.591971	-6.799000	-1.979248	9.793945	-2.706974	1.451524	1.672618	4.073991	26.806774	-5.793046	13.202598	18.717342	-130.297821	8.362207	3.873031	-10.765160	15.496067	4.889387	2.863213	16.411688	-1.230043	-26.432344	6.056747	-66.336609	-126.279678	-61.113979	-1.020374	6.011007	19.567965	-2.084047	4.962920	16.459267	-3.417038	-3.697602	15.359838	
-3.502653	33.897099	-13.225600	-3.985655	-1.617539	-32.522503	39.847969	-25.800846	13.715241	-30.733116	33.611164	29.709841	-3.669206	-0.442338	5.167624	-30.883705	-2.306364	-5.269503	9.922036	38.912964	-12.982973	21.694622	-12.616686	-4.105731	-1.899312	10.612339	-2.866494	0.755199	1.876347	4.294006	26.727678	-7.964916	14.982163	16.949621	-134.209702	5.786952	3.580722	-11.421872	16.551634	4.099050	2.487786	17.227823	0.697539	-27.607441	7.594092	-61.901363	-128.178223	-55.694771	0.618332	6.831800	20.709251	-3.166050	4.258053	17.737463	-3.874591	-4.105987	15.777548	
-3.576177	33.596119	-13.701479	-3.949758	-1.653109	-33.041000	41.578529	-26.571692	13.530868	-32.726028	34.039867	31.664234	-4.207962	-1.320708	5.320272	-31.242437	-3.119144	-5.446324	10.853898	39.869061	-13.435740	22.194679	-14.456584	-3.429300	-1.849534	10.890327	-2.958766	0.545189	1.995465	4.460745	26.694769	-8.715879	15.596568	16.745947	-135.418152	5.387411	3.573308	-11.623767	16.846155	3.883025	2.386820	17.497988	1.291782	-27.944342	8.045996	-60.784676	-128.879044	-54.364025	1.180938	6.201439	21.379471	-3.512865	4.024559	18.166548	-4.029951	-4.272618	15.946367	
-3.734762	33.272812	-14.419367	-3.684924	-1.553722	-34.566063	43.707466	-26.820604	14.401769	-33.994778	34.228767	33.119217	-5.019228	-1.985473	5.507599	-32.084129	-5.755857	-7.047475	13.116586	42.906647	-13.415216	22.531393	-19.638098	-2.010421	-1.690200	11.549164	-3.256248	-0.063105	2.117926	4.970479	26.476963	-10.553940	17.102110	16.781282	-138.749390	4.925508	3.693704	-12.203810	17.310308	3.144360	2.175650	18.209803	2.922311	-28.756258	9.173704	-58.147259	-131.148071	-51.308334	2.184813	3.780316	22.431122	-4.353384	3.081155	19.268913	-4.493484	-4.582503	16.587093	
-3.771859	33.130589	-14.767334	-3.554562	-1.568947	-35.060211	44.647190	-27.060667	14.587050	-34.999680	34.326515	33.993713	-4.889781	-3.604261	5.681608	-32.369228	-6.552904	-7.943826	13.468526	43.988651	-12.812975	22.875158	-21.098688	-1.657726	-1.462335	12.122828	-3.914050	-0.463858	1.781422	5.591308	26.331085	-11.023434	17.365803	16.830332	-139.701996	4.730077	3.729904	-12.381747	17.345024	2.703616	1.758233	18.906525	3.321734	-28.926720	9.507898	-57.408089	-131.860428	-50.539661	2.444095	1.111709	22.695602	-4.746116	2.377357	20.178917	-4.714009	-4.644669	16.700068	
-3.918549	32.573418	-15.611433	-3.283064	-1.984473	-36.694954	47.345013	-27.346846	15.058093	-37.887119	34.850414	37.398933	-5.208807	-4.929789	5.191273	-33.600475	-8.563565	-10.637336	13.859853	47.135319	-10.852173	23.602011	-23.992119	0.279125	-1.893372	12.825234	-3.173299	-0.746410	2.303941	4.991590	25.867796	-12.148795	17.644684	17.240976	-142.237488	4.156313	3.906454	-12.753792	17.243925	2.324430	1.863527	18.430840	4.205492	-29.245871	10.205716	-55.642456	-134.053238	-48.851238	2.588560	0.019722	22.386642	-5.035009	2.096667	20.563910	-5.368285	-5.067537	17.071156	
-3.965905	32.422539	-15.941603	-3.318266	-2.176375	-37.238487	48.205772	-27.302498	15.148762	-38.730453	35.012398	38.477074	-5.184084	-6.413775	4.999710	-34.060905	-9.153861	-11.312783	16.530252	48.609467	-11.948443	22.256933	-25.380877	0.955739	-1.752352	13.488517	-3.323474	-1.046282	2.160884	5.098054	25.805964	-12.371444	17.727570	17.496889	-143.001740	4.147552	3.968299	-12.887856	17.053310	1.984850	1.613981	18.564714	4.444484	-29.344692	10.358309	-55.284103	-134.794891	-48.543697	2.521944	-0.895929	22.243029	-5.372668	1.762609	20.914867	-5.567908	-5.334613	17.251738	
-4.114022	31.957764	-16.637928	-3.408103	-2.403080	-37.633953	50.365959	-28.128773	15.111408	-40.560425	35.412678	40.729042	-5.511297	-7.091444	4.677001	-36.439327	-11.109250	-14.413779	16.926546	52.067211	-9.150598	22.444246	-26.329622	1.153815	-1.537527	14.209743	-3.555249	-1.267047	2.570039	4.003820	25.881826	-12.492092	18.093035	18.533203	-145.027313	4.526268	3.693610	-13.177777	16.060898	1.758564	1.951630	17.397257	4.723981	-29.736280	10.621364	-54.557907	-136.889450	-48.094257	2.066384	-3.437862	21.370617	-5.608214	2.036612	20.337624	-6.212472	-6.417972	18.033709	
-4.120256	31.835373	-16.890368	-3.532526	-2.615639	-38.016327	50.917847	-28.053009	15.144547	-40.972862	35.462154	41.227409	-5.477117	-7.498932	4.655096	-37.088448	-11.938152	-15.230040	17.673523	53.584404	-8.700480	21.847851	-26.850039	1.120777	-1.240033	14.993657	-3.871579	-1.570556	2.268622	4.063454	25.845259	-12.471377	18.173046	18.956232	-145.568192	4.670431	3.447528	-13.223422	15.501735	1.407582	1.658844	17.370352	4.779694	-29.883055	10.677839	-54.475376	-137.530930	-48.072243	1.721194	-5.034710	20.990486	-5.799552	1.900902	19.986439	-6.545477	-6.993708	18.772453	
-4.180159	31.551378	-17.516748	-3.647961	-2.704378	-38.408558	52.407276	-28.485870	15.263081	-41.814869	35.354961	42.276459	-5.301874	-8.588826	4.567921	-37.459042	-12.665265	-16.049080	20.375793	55.254826	-9.740975	20.481806	-28.089417	1.081887	-0.882878	15.617398	-4.254647	-1.565487	2.521057	3.056466	25.729488	-12.307432	18.306696	20.093878	-146.616562	4.737503	2.468646	-13.241753	13.290730	1.150302	1.789174	16.083658	4.939527	-30.158640	10.693782	-54.526886	-139.195938	-48.050732	1.562825	-6.212275	20.033419	-5.874949	1.675388	19.764009	-7.024690	-7.583569	19.072824	
